<svg width="16" height="16" viewBox="0 0 16 16" fill="none" xmlns="http://www.w3.org/2000/svg">
<path d="M8 6.2225L13.5154 0.707107C13.9059 0.316582 14.5391 0.316583 14.9296 0.707107L15.2929 1.07039C15.6834 1.46092 15.6834 2.09408 15.2929 2.48461L9.7775 8L15.2929 13.5154C15.6834 13.9059 15.6834 14.5391 15.2929 14.9296L14.9296 15.2929C14.5391 15.6834 13.9059 15.6834 13.5154 15.2929L8 9.7775L2.48461 15.2929C2.09408 15.6834 1.46092 15.6834 1.07039 15.2929L0.707107 14.9296C0.316582 14.5391 0.316583 13.9059 0.707107 13.5154L6.2225 8L0.707106 2.4846C0.316582 2.09408 0.316583 1.46092 0.707107 1.07039L1.07039 0.707107C1.46092 0.316582 2.09408 0.316582 2.48461 0.707107L8 6.2225Z" fill="white"/>
</svg>
