<svg width="541" height="244" viewBox="0 0 541 244" fill="none" xmlns="http://www.w3.org/2000/svg">
<path d="M24.4 97V35.7H0.4V27H58.3V35.7H34.3V97H24.4ZM85.0227 97.6C79.6893 97.6 74.956 96.4333 70.8227 94.1C66.6893 91.7667 63.4227 88.5667 61.0227 84.5C58.6227 80.3667 57.4227 75.7 57.4227 70.5C57.4227 65.2333 58.6227 60.5667 61.0227 56.5C63.4227 52.4333 66.6893 49.2667 70.8227 47C74.956 44.6667 79.6893 43.5 85.0227 43.5C90.2893 43.5 94.9893 44.6667 99.1227 47C103.323 49.2667 106.589 52.4333 108.923 56.5C111.323 60.5 112.523 65.1667 112.523 70.5C112.523 75.7667 111.323 80.4333 108.923 84.5C106.589 88.5667 103.323 91.7667 99.1227 94.1C94.9893 96.4333 90.2893 97.6 85.0227 97.6ZM85.0227 89.2C88.4227 89.2 91.456 88.4333 94.1227 86.9C96.856 85.3667 98.9893 83.2 100.523 80.4C102.056 77.5333 102.823 74.2333 102.823 70.5C102.823 66.7 102.056 63.4333 100.523 60.7C98.9893 57.9 96.856 55.7333 94.1227 54.2C91.456 52.6667 88.4227 51.9 85.0227 51.9C81.6227 51.9 78.5893 52.6667 75.9227 54.2C73.256 55.7333 71.1227 57.9 69.5227 60.7C67.9227 63.4333 67.1227 66.7 67.1227 70.5C67.1227 74.2333 67.9227 77.5333 69.5227 80.4C71.1227 83.2 73.256 85.3667 75.9227 86.9C78.5893 88.4333 81.6227 89.2 85.0227 89.2ZM170.855 97.6C165.521 97.6 161.388 96.1667 158.455 93.3C155.521 90.4333 154.055 86.3333 154.055 81V32.4H163.655V80.6C163.655 83.4667 164.355 85.6667 165.755 87.2C167.221 88.7333 169.288 89.5 171.955 89.5C174.955 89.5 177.455 88.6667 179.455 87L182.455 93.9C180.988 95.1667 179.221 96.1 177.155 96.7C175.155 97.3 173.055 97.6 170.855 97.6ZM145.055 51.9V44H178.855V51.9H145.055ZM222.361 43.5C226.694 43.5 230.494 44.3333 233.761 46C237.094 47.6667 239.694 50.2 241.561 53.6C243.428 57 244.361 61.3 244.361 66.5V97H234.761V67.6C234.761 62.4667 233.494 58.6 230.961 56C228.494 53.4 224.994 52.1 220.461 52.1C217.061 52.1 214.094 52.7667 211.561 54.1C209.028 55.4333 207.061 57.4 205.661 60C204.328 62.6 203.661 65.8333 203.661 69.7V97H194.061V22.8H203.661V58.3L201.761 54.5C203.494 51.0333 206.161 48.3333 209.761 46.4C213.361 44.4667 217.561 43.5 222.361 43.5ZM285.727 97.6C280.061 97.6 275.061 96.4333 270.727 94.1C266.461 91.7667 263.127 88.5667 260.727 84.5C258.394 80.4333 257.227 75.7667 257.227 70.5C257.227 65.2333 258.361 60.5667 260.627 56.5C262.961 52.4333 266.127 49.2667 270.127 47C274.194 44.6667 278.761 43.5 283.827 43.5C288.961 43.5 293.494 44.6333 297.427 46.9C301.361 49.1667 304.427 52.3667 306.627 56.5C308.894 60.5667 310.027 65.3333 310.027 70.8C310.027 71.2 309.994 71.6667 309.927 72.2C309.927 72.7333 309.894 73.2333 309.827 73.7H264.727V66.8H304.827L300.927 69.2C300.994 65.8 300.294 62.7667 298.827 60.1C297.361 57.4333 295.327 55.3667 292.727 53.9C290.194 52.3667 287.227 51.6 283.827 51.6C280.494 51.6 277.527 52.3667 274.927 53.9C272.327 55.3667 270.294 57.4667 268.827 60.2C267.361 62.8667 266.627 65.9333 266.627 69.4V71C266.627 74.5333 267.427 77.7 269.027 80.5C270.694 83.2333 272.994 85.3667 275.927 86.9C278.861 88.4333 282.227 89.2 286.027 89.2C289.161 89.2 291.994 88.6667 294.527 87.6C297.127 86.5333 299.394 84.9333 301.327 82.8L306.627 89C304.227 91.8 301.227 93.9333 297.627 95.4C294.094 96.8667 290.127 97.6 285.727 97.6ZM10.5 219V149H18.7L50.1 201.9H45.7L76.7 149H84.9L85 219H75.4L75.3 164.1H77.6L50 210.5H45.4L17.6 164.1H20.1V219H10.5ZM176.519 219.6C171.185 219.6 167.052 218.167 164.119 215.3C161.185 212.433 159.719 208.333 159.719 203V154.4H169.319V202.6C169.319 205.467 170.019 207.667 171.419 209.2C172.885 210.733 174.952 211.5 177.619 211.5C180.619 211.5 183.119 210.667 185.119 209L188.119 215.9C186.652 217.167 184.885 218.1 182.819 218.7C180.819 219.3 178.719 219.6 176.519 219.6ZM150.719 173.9V166H184.519V173.9H150.719ZM232.625 219V207.8L232.125 205.7V186.6C232.125 182.533 230.925 179.4 228.525 177.2C226.192 174.933 222.658 173.8 217.925 173.8C214.792 173.8 211.725 174.333 208.725 175.4C205.725 176.4 203.192 177.767 201.125 179.5L197.125 172.3C199.858 170.1 203.125 168.433 206.925 167.3C210.792 166.1 214.825 165.5 219.025 165.5C226.292 165.5 231.892 167.267 235.825 170.8C239.758 174.333 241.725 179.733 241.725 187V219H232.625ZM215.225 219.6C211.292 219.6 207.825 218.933 204.825 217.6C201.892 216.267 199.625 214.433 198.025 212.1C196.425 209.7 195.625 207 195.625 204C195.625 201.133 196.292 198.533 197.625 196.2C199.025 193.867 201.258 192 204.325 190.6C207.458 189.2 211.658 188.5 216.925 188.5H233.725V195.4H217.325C212.525 195.4 209.292 196.2 207.625 197.8C205.958 199.4 205.125 201.333 205.125 203.6C205.125 206.2 206.158 208.3 208.225 209.9C210.292 211.433 213.158 212.2 216.825 212.2C220.425 212.2 223.558 211.4 226.225 209.8C228.958 208.2 230.925 205.867 232.125 202.8L234.025 209.4C232.758 212.533 230.525 215.033 227.325 216.9C224.125 218.7 220.092 219.6 215.225 219.6ZM260.891 219V149H269.091L300.491 201.9H296.091L327.091 149H335.291L335.391 219H325.791L325.691 164.1H327.991L300.391 210.5H295.791L267.991 164.1H270.491V219H260.891ZM377.698 219.6C372.365 219.6 367.632 218.433 363.498 216.1C359.365 213.767 356.098 210.567 353.698 206.5C351.298 202.367 350.098 197.7 350.098 192.5C350.098 187.233 351.298 182.567 353.698 178.5C356.098 174.433 359.365 171.267 363.498 169C367.632 166.667 372.365 165.5 377.698 165.5C382.965 165.5 387.665 166.667 391.798 169C395.998 171.267 399.265 174.433 401.598 178.5C403.998 182.5 405.198 187.167 405.198 192.5C405.198 197.767 403.998 202.433 401.598 206.5C399.265 210.567 395.998 213.767 391.798 216.1C387.665 218.433 382.965 219.6 377.698 219.6ZM377.698 211.2C381.098 211.2 384.132 210.433 386.798 208.9C389.532 207.367 391.665 205.2 393.198 202.4C394.732 199.533 395.498 196.233 395.498 192.5C395.498 188.7 394.732 185.433 393.198 182.7C391.665 179.9 389.532 177.733 386.798 176.2C384.132 174.667 381.098 173.9 377.698 173.9C374.298 173.9 371.265 174.667 368.598 176.2C365.932 177.733 363.798 179.9 362.198 182.7C360.598 185.433 359.798 188.7 359.798 192.5C359.798 196.233 360.598 199.533 362.198 202.4C363.798 205.2 365.932 207.367 368.598 208.9C371.265 210.433 374.298 211.2 377.698 211.2ZM441.175 219.6C435.842 219.6 431.108 218.433 426.975 216.1C422.842 213.767 419.575 210.567 417.175 206.5C414.775 202.367 413.575 197.7 413.575 192.5C413.575 187.233 414.775 182.567 417.175 178.5C419.575 174.433 422.842 171.267 426.975 169C431.108 166.667 435.842 165.5 441.175 165.5C446.442 165.5 451.142 166.667 455.275 169C459.475 171.267 462.742 174.433 465.075 178.5C467.475 182.5 468.675 187.167 468.675 192.5C468.675 197.767 467.475 202.433 465.075 206.5C462.742 210.567 459.475 213.767 455.275 216.1C451.142 218.433 446.442 219.6 441.175 219.6ZM441.175 211.2C444.575 211.2 447.608 210.433 450.275 208.9C453.008 207.367 455.142 205.2 456.675 202.4C458.208 199.533 458.975 196.233 458.975 192.5C458.975 188.7 458.208 185.433 456.675 182.7C455.142 179.9 453.008 177.733 450.275 176.2C447.608 174.667 444.575 173.9 441.175 173.9C437.775 173.9 434.742 174.667 432.075 176.2C429.408 177.733 427.275 179.9 425.675 182.7C424.075 185.433 423.275 188.7 423.275 192.5C423.275 196.233 424.075 199.533 425.675 202.4C427.275 205.2 429.408 207.367 432.075 208.9C434.742 210.433 437.775 211.2 441.175 211.2ZM510.252 165.5C514.585 165.5 518.385 166.333 521.652 168C524.985 169.667 527.585 172.2 529.452 175.6C531.318 179 532.252 183.3 532.252 188.5V219H522.652V189.6C522.652 184.467 521.385 180.6 518.852 178C516.385 175.4 512.885 174.1 508.352 174.1C504.952 174.1 501.985 174.767 499.452 176.1C496.918 177.433 494.952 179.4 493.552 182C492.218 184.6 491.552 187.833 491.552 191.7V219H481.952V166H491.152V180.3L489.652 176.5C491.385 173.033 494.052 170.333 497.652 168.4C501.252 166.467 505.452 165.5 510.252 165.5Z" fill="white"/>
<path d="M148.409 198.518C146.662 204.981 142.071 210.521 135.123 214.634C126.713 219.628 118.262 220.552 111.071 217.95L105.545 195.79L130.898 180.682L136.83 186.725L109.649 202.925C114.687 208.926 122.528 209.976 130.289 205.359C135.326 202.379 138.333 198.392 139.633 193.104C139.918 192.055 140.039 190.922 140.08 189.999L148.409 198.518Z" fill="#FFA300"/>
<path d="M162 212.488C154.705 228.268 138.674 239.227 120.128 239.227C118.85 239.227 117.532 239.186 116.295 239.062L110.773 217.68L146.669 197.409L162 212.488Z" fill="url(#paint0_linear_608_186)"/>
<path d="M109.101 167.849L112.71 174.116C113.913 174.241 115.074 174.826 115.821 175.871C121.628 174.241 127.436 176.205 131.21 181.218L137.266 187.235L145.273 182.555C144.775 181.469 144.111 180.132 143.613 179.255C135.857 165.677 121.877 161.624 109.101 167.849ZM96.8642 206.119C100.307 212.135 105.243 216.313 111.009 218.318L105.368 196.259C103.086 190.326 104.248 184.394 108.479 180.216C107.94 179.046 107.94 177.709 108.479 176.581L104.87 170.314C92.9649 178.545 89.4805 193.209 96.8642 206.119Z" fill="white"/>
<defs>
<linearGradient id="paint0_linear_608_186" x1="129.537" y1="208.549" x2="140.251" y2="227.754" gradientUnits="userSpaceOnUse">
<stop stop-color="#FFA300" stop-opacity="0.8"/>
<stop offset="1" stop-color="#FFA300" stop-opacity="0"/>
</linearGradient>
</defs>
</svg>
